<svg width="428" height="142" viewBox="0 0 428 142" fill="none" xmlns="http://www.w3.org/2000/svg">
<path d="M32.6604 123.279C32.6604 129.559 28.6166 133.748 23.0665 133.748C19.899 133.748 17.7173 132.388 16.4485 130.554L15.9373 133.511H12.2129V105.525H16.4941V116.077C17.8451 114.242 19.9446 112.8 23.0756 112.8C28.6257 112.8 32.6696 116.679 32.6696 123.27L32.6604 123.279ZM28.3062 123.279C28.3062 119.281 25.9237 116.488 22.3636 116.488C18.8036 116.488 16.4576 119.29 16.4576 123.242C16.4576 127.195 18.7944 130.115 22.3636 130.115C25.9328 130.115 28.3062 127.313 28.3062 123.279Z" fill="black"/>
<path d="M47.33 117.081H45.4313C41.6247 117.081 40.3924 120.084 40.3924 123.233V133.502H36.1112V113.037H39.9177L40.3924 116.113C41.4239 114.397 43.0488 113.037 46.3806 113.037H47.33V117.081Z" fill="black"/>
<path d="M49.5484 107.57C49.5484 106.055 50.6986 104.968 52.1683 104.968C53.6379 104.968 54.7881 106.046 54.7881 107.57C54.7881 109.094 53.6379 110.171 52.1683 110.171C50.6986 110.171 49.5484 109.094 49.5484 107.57ZM49.9866 113.046H54.2678V133.511H49.9866V113.046Z" fill="black"/>
<path d="M74.4414 113.047H78.1658V132.671C78.1658 138.23 75.0713 141.744 67.7777 141.744C62.3829 141.744 58.622 139.225 58.2203 134.634H62.5837C63.0949 136.916 65.0849 138.23 68.0972 138.23C71.8216 138.23 73.9211 136.432 73.9211 132.516V130.234C72.5701 132.27 70.4706 133.593 67.3031 133.593C61.7895 133.593 57.7091 129.714 57.7091 123.197C57.7091 116.68 61.7895 112.8 67.3031 112.8C70.4706 112.8 72.6523 114.197 73.9668 116.242L74.4414 113.047ZM73.9211 123.279C73.9211 119.245 71.5843 116.442 68.0151 116.442C64.4459 116.442 62.109 119.245 62.109 123.197C62.109 127.149 64.4459 129.951 68.0151 129.951C71.5843 129.951 73.9211 127.195 73.9211 123.279Z" fill="black"/>
<path d="M101.233 133.511H96.9515V122.476C96.9515 118.596 95.2445 116.515 92.077 116.515C88.7086 116.515 86.6456 119.034 86.6456 123.151V133.502H82.3644V105.516H86.6456V115.986C87.9144 114.224 89.8588 112.791 93.0263 112.791C97.5448 112.791 101.233 115.265 101.233 122.101V133.511Z" fill="black"/>
<path d="M106.582 116.844H103.059V113.047H106.582V107.333H110.9V113.047H115.857V116.844H110.9V127.514C110.9 129.111 111.457 129.714 113.082 129.714H116.094V133.511H112.132C108.244 133.511 106.582 131.676 106.582 127.952V116.844Z" fill="black"/>
<path d="M148.408 129.76V133.52H146.144C143.369 133.52 142.42 132.279 142.42 130.243C141.069 132.325 139.015 133.758 135.72 133.758C131.283 133.758 128.189 131.558 128.189 127.761C128.189 123.562 131.201 121.207 136.87 121.207H141.982V119.966C141.982 117.684 140.357 116.287 137.545 116.287C135.007 116.287 133.3 117.483 132.99 119.29H128.791C129.229 115.292 132.634 112.819 137.746 112.819C143.141 112.819 146.226 115.42 146.226 120.258V128.454C146.226 129.495 146.664 129.778 147.532 129.778H148.408V129.76ZM141.982 124.402H136.669C134.013 124.402 132.543 125.397 132.543 127.478C132.543 129.194 133.967 130.399 136.313 130.399C139.882 130.399 141.945 128.281 141.982 125.123V124.402Z" fill="black"/>
<path d="M169.614 133.511H165.296V122.476C165.296 118.597 163.671 116.515 160.458 116.515C157.053 116.515 155.027 119.035 155.027 123.188V133.502H150.745V113.038H154.47L154.944 115.712C156.213 114.115 158.158 112.791 161.444 112.791C165.926 112.791 169.614 115.265 169.614 122.102V133.511Z" fill="black"/>
<path d="M188.756 105.534H193.037V133.52H189.312L188.801 130.444C187.496 132.242 185.396 133.757 182.183 133.757C176.67 133.757 172.589 129.842 172.589 123.288C172.589 116.734 176.67 112.818 182.183 112.818C185.278 112.818 187.459 114.096 188.765 115.894V105.544L188.756 105.534ZM188.801 123.361C188.801 119.281 186.464 116.488 182.895 116.488C179.326 116.488 176.989 119.29 176.989 123.279C176.989 127.268 179.326 130.115 182.895 130.115C186.464 130.115 188.801 127.313 188.801 123.361Z" fill="black"/>
<path d="M222.805 105.534H227.086V133.52H223.361L222.85 130.444C221.545 132.242 219.445 133.757 216.232 133.757C210.719 133.757 206.638 129.842 206.638 123.288C206.638 116.734 210.719 112.818 216.232 112.818C219.327 112.818 221.508 114.096 222.814 115.894V105.544L222.805 105.534ZM222.85 123.361C222.85 119.281 220.513 116.488 216.944 116.488C213.375 116.488 211.038 119.29 211.038 123.279C211.038 127.268 213.375 130.115 216.944 130.115C220.513 130.115 222.85 127.313 222.85 123.361Z" fill="black"/>
<path d="M250.71 129.76V133.52H248.446C245.671 133.52 244.721 132.279 244.721 130.243C243.37 132.325 241.317 133.758 238.021 133.758C233.585 133.758 230.49 131.558 230.49 127.761C230.49 123.562 233.503 121.207 239.171 121.207H244.283V119.966C244.283 117.684 242.658 116.287 239.847 116.287C237.309 116.287 235.602 117.483 235.292 119.29H231.093C231.531 115.292 234.936 112.819 240.048 112.819C245.443 112.819 248.528 115.42 248.528 120.258V128.454C248.528 129.495 248.966 129.778 249.833 129.778H250.71V129.76ZM244.292 124.402H238.98C236.323 124.402 234.854 125.397 234.854 127.478C234.854 129.194 236.278 130.399 238.615 130.399C242.184 130.399 244.247 128.281 244.283 125.123V124.402H244.292Z" fill="black"/>
<path d="M264.266 117.081H262.367C258.561 117.081 257.328 120.084 257.328 123.233V133.502H253.047V113.037H256.854L257.328 116.113C258.36 114.397 259.985 113.037 263.316 113.037H264.266V117.081Z" fill="black"/>
<path d="M266.922 105.534H271.204V122.959L280.405 113.047H285.444L277.794 121.325L285.918 133.52H280.843L274.855 124.484L271.204 128.317V133.511H266.922V105.525V105.534Z" fill="black"/>
<path d="M313.54 105.534H317.822V133.52H314.097L313.586 130.444C312.281 132.242 310.172 133.757 306.968 133.757C301.455 133.757 297.374 129.842 297.374 123.288C297.374 116.734 301.455 112.818 306.968 112.818C310.063 112.818 312.244 114.096 313.55 115.894V105.544L313.54 105.534ZM313.577 123.361C313.577 119.281 311.24 116.488 307.671 116.488C304.102 116.488 301.765 119.29 301.765 123.279C301.765 127.268 304.102 130.115 307.671 130.115C311.24 130.115 313.577 127.313 313.577 123.361Z" fill="black"/>
<path d="M321.263 123.325C321.263 117.008 325.27 112.81 331.249 112.81C337.228 112.81 341.044 116.57 341.162 122.567C341.162 123.087 341.126 123.644 341.044 124.201H325.745V124.484C325.863 127.962 328.045 130.243 331.413 130.243C334.033 130.243 335.932 128.92 336.525 126.647H340.806C340.094 130.682 336.68 133.758 331.651 133.758C325.27 133.758 321.263 129.605 321.263 123.325ZM336.726 121.043C336.37 118.003 334.27 116.287 331.295 116.287C328.556 116.287 326.219 118.122 325.9 121.043H336.726Z" fill="black"/>
<path d="M347.827 126.757C347.982 128.874 349.808 130.398 352.902 130.398C355.559 130.398 357.302 129.358 357.302 127.724C357.302 125.524 355.44 125.369 352.309 124.968C347.672 124.411 344.021 123.407 344.021 119.171C344.021 115.292 347.471 112.773 352.346 112.819C357.339 112.819 360.871 115.137 361.145 119.336H356.946C356.709 117.455 354.965 116.141 352.428 116.141C349.89 116.141 348.229 117.182 348.229 118.815C348.229 120.732 350.173 120.979 353.103 121.298C357.74 121.855 361.51 122.813 361.51 127.377C361.51 131.293 357.823 133.776 352.912 133.776C347.48 133.776 343.756 131.22 343.637 126.784H347.836L347.827 126.757Z" fill="black"/>
<path d="M364.395 107.57C364.395 106.055 365.545 104.968 367.014 104.968C368.484 104.968 369.634 106.046 369.634 107.57C369.634 109.094 368.484 110.171 367.014 110.171C365.545 110.171 364.395 109.094 364.395 107.57ZM364.833 113.046H369.114V133.511H364.833V113.046Z" fill="black"/>
<path d="M389.288 113.047H393.012V132.671C393.012 138.23 389.918 141.744 382.624 141.744C377.229 141.744 373.468 139.225 373.067 134.634H377.43C377.941 136.916 379.931 138.23 382.943 138.23C386.668 138.23 388.767 136.432 388.767 132.516V130.234C387.416 132.27 385.317 133.593 382.149 133.593C376.636 133.593 372.555 129.714 372.555 123.197C372.555 116.68 376.636 112.8 382.149 112.8C385.317 112.8 387.498 114.197 388.813 116.242L389.288 113.047ZM388.776 123.279C388.776 119.245 386.44 116.442 382.87 116.442C379.301 116.442 376.964 119.245 376.964 123.197C376.964 127.149 379.301 129.951 382.87 129.951C386.44 129.951 388.776 127.195 388.776 123.279Z" fill="black"/>
<path d="M416.08 133.511H411.762V122.476C411.762 118.597 410.137 116.515 406.924 116.515C403.51 116.515 401.493 119.035 401.493 123.188V133.502H397.211V113.038H400.936L401.41 115.712C402.679 114.115 404.624 112.791 407.91 112.791C412.392 112.791 416.08 115.265 416.08 122.102V133.511Z" fill="black"/>
<path d="M47.6501 10.7158C69.3938 10.7158 87.0846 28.4053 87.0846 50.1475C87.0846 71.8897 69.3938 89.5792 47.6501 89.5792C25.9063 89.5792 8.21553 71.8805 8.21553 50.1384C8.21553 28.3962 25.9063 10.7158 47.6501 10.7158ZM47.6501 2.50087C21.333 2.50087 0 23.8323 0 50.1384C0 76.4444 21.333 97.785 47.6501 97.785C73.9671 97.785 95.3001 76.4535 95.3001 50.1384C95.3001 23.8232 73.9671 2.50087 47.6501 2.50087Z" fill="black"/>
<path d="M32.406 27.1363H49.3026C59.4259 27.1363 65.2133 31.7366 65.2133 39.2944C65.2133 44.7528 62.1279 48.0387 57.3264 49.3531C62.7852 50.2111 66.9842 53.4241 66.9842 60.0051C66.9842 68.1562 61.0052 73.149 49.8959 73.149H32.4151V27.1363H32.406ZM39.9643 33.4435V46.6513H49.4943C54.6883 46.6513 57.6459 44.1503 57.6459 40.0155C57.6459 35.8806 54.7522 33.4435 49.4943 33.4435H39.9643ZM39.9643 66.7688H49.9507C55.9937 66.7688 59.216 64.2039 59.216 59.9321C59.216 55.3957 55.802 52.8947 49.9507 52.8947H39.9643V66.7688Z" fill="black"/>
<path d="M254.656 10.7158C276.4 10.7158 294.09 28.4053 294.09 50.1475C294.09 71.8897 276.4 89.5792 254.656 89.5792C232.912 89.5792 215.221 71.8897 215.221 50.1475C215.221 28.4053 232.912 10.7158 254.656 10.7158ZM254.656 2.50087C228.339 2.50087 207.006 23.8323 207.006 50.1475C207.006 76.4627 228.339 97.7941 254.656 97.7941C280.973 97.7941 302.306 76.4627 302.306 50.1475C302.306 23.8323 280.973 2.50087 254.656 2.50087Z" fill="black"/>
<path d="M238.37 73.1491V27.1364H254.016C268.412 27.1364 277.485 36.401 277.485 50.0743C277.485 63.7476 268.412 73.14 254.016 73.14H238.37V73.1491ZM245.929 66.5772H254.016C264.14 66.5772 269.726 59.9414 269.726 50.0834C269.726 40.2255 264.14 33.7175 254.016 33.7175H245.929V66.5772Z" fill="black"/>
<path d="M358.154 10.7158C379.898 10.7158 397.588 28.4053 397.588 50.1475C397.588 71.8897 379.898 89.5792 358.154 89.5792C336.41 89.5792 318.719 71.8897 318.719 50.1475C318.719 28.4053 336.41 10.7158 358.154 10.7158ZM358.154 2.50087C331.837 2.50087 310.504 23.8323 310.504 50.1475C310.504 76.4627 331.837 97.7941 358.154 97.7941C384.471 97.7941 405.804 76.4627 405.804 50.1475C405.804 23.8323 384.471 2.50087 358.154 2.50087Z" fill="black"/>
<path d="M341.868 73.149V27.1363H357.514C371.91 27.1363 380.983 36.4009 380.983 50.0742C380.983 63.7475 371.91 73.1399 357.514 73.1399H341.868V73.149ZM349.426 66.5771H357.514C367.638 66.5771 373.224 59.9413 373.224 50.0833C373.224 40.2254 367.638 33.7174 357.514 33.7174H349.426V66.5771Z" fill="black"/>
<path d="M151.148 10.7158C172.892 10.7158 190.583 28.4053 190.583 50.1475C190.583 71.8897 172.892 89.5792 151.148 89.5792C129.404 89.5792 111.714 71.8897 111.714 50.1475C111.714 28.4053 129.404 10.7158 151.148 10.7158ZM151.148 2.50087C124.831 2.50087 103.498 23.8323 103.498 50.1475C103.498 76.4627 124.831 97.7941 151.148 97.7941C177.465 97.7941 198.798 76.4627 198.798 50.1475C198.798 23.8323 177.465 2.50087 151.148 2.50087Z" fill="black"/>
<path d="M129.45 70.9767L146.675 24.973H155.676L172.828 70.9767H164.74L160.404 59.6035H141.536L137.264 70.9767H129.441H129.45ZM143.654 53.1685H158.314L150.956 33.1241L143.663 53.1685H143.654Z" fill="black"/>
<path d="M427.973 9.20985L420.196 12.0851L425.554 18.1641L421.766 21.4319L416.544 14.5769L411.387 21.368L407.662 18.1002L413.021 12.0212L405.316 9.14596L407.279 4.57298L414.399 7.96849L414.207 0H419.045L418.854 8.03238L426.038 4.57298L428 9.20985H427.973Z" fill="black"/>
</svg>
