<svg width="100" height="100" viewBox="0 0 100 100" fill="none" xmlns="http://www.w3.org/2000/svg">
<circle cx="50" cy="50" r="49" fill="#B6FF51" stroke="black" stroke-width="2"/>
<path d="M40.78 51.32V50.68C40.78 46.62 43.04 43.88 46.3 43.88C49.56 43.88 51.82 46.62 51.82 50.68V51.32C51.82 55.54 49.56 58.12 46.3 58.12C43.04 58.12 40.78 55.54 40.78 51.32ZM49.58 51.24V50.76C49.58 47.64 48.26 45.82 46.3 45.82C44.34 45.82 43.02 47.64 43.02 50.76V51.24C43.02 54.38 44.34 56.18 46.3 56.18C48.26 56.18 49.58 54.38 49.58 51.24ZM55.9177 45.42V44H58.0977V58H55.8777V48.4C55.6777 48.52 55.3777 48.58 54.9977 48.58H52.7177V46.68H54.8977C55.6177 46.68 55.9177 46.16 55.9177 45.42Z" fill="black"/>
</svg>
