<svg width="35" height="35" viewBox="0 0 35 35" fill="none" xmlns="http://www.w3.org/2000/svg">
<rect x="1" y="1" width="33" height="33" rx="16.5" stroke="black" stroke-width="2"/>
<path d="M23.9289 10.3047L9.36642 14.4063C9.24246 14.4402 9.13196 14.5115 9.04997 14.6104C8.96798 14.7094 8.91849 14.8312 8.90824 14.9593C8.89799 15.0874 8.92748 15.2156 8.9927 15.3263C9.05791 15.437 9.15567 15.525 9.27267 15.5782L15.9602 18.7422C16.0912 18.8029 16.1964 18.9081 16.257 19.0391L19.4211 25.7266C19.4743 25.8436 19.5622 25.9414 19.673 26.0066C19.7837 26.0718 19.9118 26.1013 20.04 26.091C20.1681 26.0808 20.2899 26.0313 20.3888 25.9493C20.4878 25.8673 20.5591 25.7568 20.593 25.6328L24.6945 11.0703C24.7256 10.9641 24.7275 10.8514 24.7001 10.7441C24.6727 10.6369 24.6169 10.539 24.5386 10.4607C24.4603 10.3824 24.3624 10.3266 24.2551 10.2992C24.1479 10.2717 24.0352 10.2736 23.9289 10.3047V10.3047Z" stroke="black" stroke-width="1.5" stroke-linecap="round" stroke-linejoin="round"/>
<path d="M16.1641 18.8359L19.6953 15.3047" stroke="black" stroke-width="1.5" stroke-linecap="round" stroke-linejoin="round"/>
</svg>
