<svg width="150" height="77" viewBox="0 0 150 77" fill="none" xmlns="http://www.w3.org/2000/svg">
<path d="M39.3242 16.4448L26.2826 21.2666L35.2678 31.4611L28.9154 36.941L20.1598 25.4454L11.5113 36.8339L5.26596 31.3539L14.2512 21.1594L1.33203 16.3377L4.62309 8.66885L16.5626 14.3631L16.2412 1H24.3539L24.0325 14.4702L36.0791 8.66885L39.3701 16.4448H39.3242Z" fill="#B6FF51" stroke="black" stroke-width="2"/>
<path d="M148.084 16.4448L135.042 21.2666L144.028 31.4611L137.675 36.941L128.92 25.4454L120.271 36.8339L114.026 31.3539L123.011 21.1594L110.092 16.3377L113.383 8.66885L125.322 14.3631L125.001 1H133.114L132.792 14.4702L144.839 8.66885L148.13 16.4448H148.084Z" fill="#B6FF51" stroke="black" stroke-width="2"/>
<path d="M33.0918 76.152L33.0918 64.92C45.9558 55.224 59.2998 51 74.3718 51C89.0598 51 102.692 55.128 115.652 64.92V76.152C101.252 65.4 89.2518 61.272 74.3718 61.272C59.3958 61.272 47.3958 65.304 33.0918 76.152Z" fill="black"/>
</svg>
