<svg width="37" height="37" viewBox="0 0 37 37" fill="none" xmlns="http://www.w3.org/2000/svg">
<rect x="1" y="1" width="35" height="35" rx="17.5" fill="#B5B5B5"/>
<rect x="1" y="1" width="35" height="35" rx="17.5" stroke="black" stroke-width="2"/>
<path d="M7.33656 19.32V18.68C7.33656 14.7 9.49656 11.88 12.6566 11.88C15.7966 11.88 17.9566 14.7 17.9566 18.68V19.32C17.9566 23.5 15.7966 26.12 12.6566 26.12C9.49656 26.12 7.33656 23.5 7.33656 19.32ZM16.2566 19.26V18.74C16.2566 15.42 14.8166 13.42 12.6566 13.42C10.4766 13.42 9.03656 15.42 9.03656 18.74V19.26C9.03656 22.58 10.4766 24.58 12.6566 24.58C14.8166 24.58 16.2566 22.58 16.2566 19.26ZM19.2603 26V24.58L24.7003 19.86C26.0003 18.74 27.0803 17.66 27.0803 16.14C27.0803 14.38 25.8803 13.38 24.0203 13.38C22.2203 13.38 21.0203 14.58 21.0203 16.5V16.76H19.3403V16.4C19.3403 13.76 21.2003 11.88 24.0203 11.88C27.0403 11.88 28.8003 13.54 28.8003 16.06C28.8003 18.16 27.4403 19.48 25.7803 20.9L21.5803 24.46H28.9003V26H19.2603Z" fill="black"/>
</svg>
