<svg width="129" height="43" viewBox="0 0 129 43" fill="none" xmlns="http://www.w3.org/2000/svg">
<g clip-path="url(#clip0_1564_43)">
<path d="M9.82553 37.0915C9.82553 38.981 8.60892 40.2416 6.93918 40.2416C5.98621 40.2416 5.32985 39.8324 4.94811 39.2803L4.79432 40.1701H3.67383V31.75H4.96184V34.9247C5.36829 34.3727 5.99994 33.9388 6.94192 33.9388C8.61167 33.9388 9.82828 35.106 9.82828 37.0888L9.82553 37.0915ZM8.51555 37.0915C8.51555 35.8887 7.79877 35.0483 6.72771 35.0483C5.65665 35.0483 4.95086 35.8914 4.95086 37.0806C4.95086 38.2697 5.65391 39.1485 6.72771 39.1485C7.80151 39.1485 8.51555 38.3054 8.51555 37.0915Z" fill="black"/>
<path d="M14.2385 34.0125V35.2264H13.6673C12.522 35.2264 12.1513 36.1299 12.1513 37.0774V40.167H10.8633V34.0098H12.0085L12.1513 34.9353C12.4616 34.419 12.9505 34.0098 13.9529 34.0098H14.2385V34.0125Z" fill="black"/>
<path d="M14.9062 32.3647C14.9062 31.9088 15.2523 31.582 15.6944 31.582C16.1366 31.582 16.4826 31.9061 16.4826 32.3647C16.4826 32.8234 16.1366 33.1474 15.6944 33.1474C15.2523 33.1474 14.9062 32.8234 14.9062 32.3647ZM15.0381 34.0125H16.3261V40.1697H15.0381V34.0125Z" fill="black"/>
<path d="M22.3953 34.0126H23.5158V39.9172C23.5158 41.5897 22.5848 42.647 20.3905 42.647C18.7674 42.647 17.636 41.889 17.5151 40.5076H18.8279C18.9816 41.1942 19.5803 41.5897 20.4866 41.5897C21.6071 41.5897 22.2388 41.0486 22.2388 39.8705V39.1839C21.8323 39.7963 21.2007 40.1945 20.2477 40.1945C18.5889 40.1945 17.3613 39.0274 17.3613 37.0665C17.3613 35.1057 18.5889 33.9385 20.2477 33.9385C21.2007 33.9385 21.857 34.3587 22.2525 34.9738L22.3953 34.0126ZM22.2388 37.0912C22.2388 35.8774 21.5357 35.0342 20.4619 35.0342C19.3881 35.0342 18.685 35.8774 18.685 37.0665C18.685 38.2557 19.3881 39.0988 20.4619 39.0988C21.5357 39.0988 22.2388 38.2694 22.2388 37.0912Z" fill="black"/>
<path d="M30.4559 36.7426V40.17H29.1679V36.8497C29.1679 35.6825 28.6543 35.0564 27.7014 35.0564C26.688 35.0564 26.0673 35.8143 26.0673 37.0529V40.1672H24.7793V31.7471H26.0673V34.8971C26.449 34.367 27.034 33.9359 27.987 33.9359C29.3464 33.9359 30.4559 34.6801 30.4559 36.7371V36.7426Z" fill="black"/>
<path d="M32.0659 35.1546H31.0059V34.0122H32.0659V32.293H33.3649V34.0122H34.8562V35.1546H33.3649V38.365C33.3649 38.8456 33.5325 39.0269 34.0213 39.0269H34.9276V40.1694H33.7357C32.5658 40.1694 32.0659 39.6173 32.0659 38.4969V35.1546Z" fill="black"/>
<path d="M44.6495 39.0405V40.172H43.9684C43.1335 40.172 42.8479 39.7985 42.8479 39.186C42.4414 39.8122 41.8235 40.2434 40.8321 40.2434C39.4974 40.2434 38.5664 39.5815 38.5664 38.439C38.5664 37.1758 39.4727 36.4672 41.1781 36.4672H42.7161V36.0937C42.7161 35.4071 42.2272 34.987 41.3814 34.987C40.6179 34.987 40.1043 35.3467 40.011 35.8905H38.7477C38.8795 34.6876 39.9039 33.9434 41.4418 33.9434C43.0648 33.9434 43.9931 34.7261 43.9931 36.1816V38.6478C43.9931 38.9608 44.1249 39.046 44.3858 39.046H44.6495V39.0405ZM42.7161 37.4284H41.1177C40.3185 37.4284 39.8764 37.7278 39.8764 38.3539C39.8764 38.8702 40.3048 39.2327 41.0106 39.2327C42.0844 39.2327 42.7051 38.5956 42.7161 37.6454V37.4284Z" fill="black"/>
<path d="M51.0282 36.7423V40.1696H49.7292V36.8494C49.7292 35.6822 49.2403 35.056 48.2736 35.056C47.2493 35.056 46.6396 35.814 46.6396 37.0636V40.1669H45.3516V34.0097H46.4721L46.6149 34.8144C46.9966 34.3338 47.5816 33.9355 48.5702 33.9355C49.9187 33.9355 51.0282 34.6798 51.0282 36.7368V36.7423Z" fill="black"/>
<path d="M56.7875 31.752H58.0755V40.1721H56.955L56.8013 39.2466C56.4085 39.7876 55.7769 40.2435 54.8102 40.2435C53.1514 40.2435 51.9238 39.0653 51.9238 37.0935C51.9238 35.1217 53.1514 33.9435 54.8102 33.9435C55.7412 33.9435 56.3975 34.328 56.7903 34.869V31.7547L56.7875 31.752ZM56.8013 37.1155C56.8013 35.8879 56.0982 35.0475 55.0244 35.0475C53.9506 35.0475 53.2475 35.8906 53.2475 37.0908C53.2475 38.2909 53.9506 39.1477 55.0244 39.1477C56.0982 39.1477 56.8013 38.3046 56.8013 37.1155Z" fill="black"/>
<path d="M67.0317 31.752H68.3197V40.1721H67.1992L67.0454 39.2466C66.6527 39.7876 66.021 40.2435 65.0543 40.2435C63.3956 40.2435 62.168 39.0653 62.168 37.0935C62.168 35.1217 63.3956 33.9435 65.0543 33.9435C65.9853 33.9435 66.6417 34.328 67.0344 34.869V31.7547L67.0317 31.752ZM67.0454 37.1155C67.0454 35.8879 66.3423 35.0475 65.2685 35.0475C64.1947 35.0475 63.4917 35.8906 63.4917 37.0908C63.4917 38.2909 64.1947 39.1477 65.2685 39.1477C66.3423 39.1477 67.0454 38.3046 67.0454 37.1155Z" fill="black"/>
<path d="M75.4268 39.0405V40.172H74.7457C73.9108 40.172 73.6252 39.7985 73.6252 39.186C73.2188 39.8122 72.6009 40.2434 71.6094 40.2434C70.2747 40.2434 69.3438 39.5815 69.3438 38.439C69.3438 37.1758 70.25 36.4672 71.9555 36.4672H73.4934V36.0937C73.4934 35.4071 73.0046 34.987 72.1587 34.987C71.3952 34.987 70.8817 35.3467 70.7883 35.8905H69.525C69.6568 34.6876 70.6812 33.9434 72.2191 33.9434C73.8422 33.9434 74.7704 34.7261 74.7704 36.1816V38.6478C74.7704 38.9608 74.9023 39.046 75.1632 39.046H75.4268V39.0405ZM73.4962 37.4284H71.8978C71.0986 37.4284 70.6565 37.7278 70.6565 38.3539C70.6565 38.8702 71.0849 39.2327 71.788 39.2327C72.8618 39.2327 73.4824 38.5956 73.4934 37.6454V37.4284H73.4962Z" fill="black"/>
<path d="M79.5041 34.0125V35.2264H78.9329C77.7877 35.2264 77.4169 36.1299 77.4169 37.0774V40.167H76.1289V34.0098H77.2741L77.4169 34.9353C77.7273 34.419 78.2161 34.0098 79.2185 34.0098H79.5041V34.0125Z" fill="black"/>
<path d="M80.3027 31.7527H81.5907V36.9954L84.359 34.0129H85.875L83.5736 36.5038L86.0178 40.1729H84.4908L82.6893 37.4541L81.5907 38.6075V40.1701H80.3027V31.75V31.7527Z" fill="black"/>
<path d="M94.3285 31.752H95.6166V40.1721H94.4961L94.3423 39.2466C93.9496 39.7876 93.3152 40.2435 92.3512 40.2435C90.6924 40.2435 89.4648 39.0653 89.4648 37.0935C89.4648 35.1217 90.6924 33.9435 92.3512 33.9435C93.2822 33.9435 93.9386 34.328 94.3313 34.869V31.7547L94.3285 31.752ZM94.3395 37.1155C94.3395 35.8879 93.6365 35.0475 92.5627 35.0475C91.4889 35.0475 90.7858 35.8906 90.7858 37.0908C90.7858 38.2909 91.4889 39.1477 92.5627 39.1477C93.6365 39.1477 94.3395 38.3046 94.3395 37.1155Z" fill="black"/>
<path d="M96.6523 37.1051C96.6523 35.2047 97.858 33.9414 99.6568 33.9414C101.456 33.9414 102.604 35.0729 102.639 36.8772C102.639 37.0337 102.628 37.2013 102.604 37.3688H98.0008V37.4539C98.0365 38.5003 98.6928 39.1868 99.7062 39.1868C100.494 39.1868 101.066 38.7886 101.244 38.1048H102.532C102.318 39.3187 101.291 40.2442 99.7776 40.2442C97.858 40.2442 96.6523 38.9946 96.6523 37.1051ZM101.305 36.4186C101.197 35.5041 100.566 34.9877 99.6705 34.9877C98.8466 34.9877 98.1436 35.5398 98.0475 36.4186H101.305Z" fill="black"/>
<path d="M104.643 38.1371C104.69 38.7743 105.239 39.2329 106.17 39.2329C106.969 39.2329 107.494 38.9198 107.494 38.4282C107.494 37.7664 106.934 37.7197 105.992 37.5989C104.597 37.4313 103.498 37.1292 103.498 35.855C103.498 34.6878 104.536 33.9298 106.003 33.9435C107.505 33.9435 108.568 34.6411 108.65 35.9044H107.387C107.316 35.3387 106.791 34.9432 106.027 34.9432C105.264 34.9432 104.764 35.2563 104.764 35.7479C104.764 36.3246 105.349 36.3987 106.231 36.4949C107.626 36.6624 108.76 36.9507 108.76 38.3239C108.76 39.5021 107.651 40.249 106.173 40.249C104.539 40.249 103.419 39.4801 103.383 38.1454H104.646L104.643 38.1371Z" fill="black"/>
<path d="M109.629 32.3647C109.629 31.9088 109.975 31.582 110.417 31.582C110.859 31.582 111.205 31.9061 111.205 32.3647C111.205 32.8234 110.859 33.1474 110.417 33.1474C109.975 33.1474 109.629 32.8234 109.629 32.3647ZM109.761 34.0125H111.049V40.1697H109.761V34.0125Z" fill="black"/>
<path d="M117.118 34.0126H118.238V39.9172C118.238 41.5897 117.307 42.647 115.113 42.647C113.49 42.647 112.359 41.889 112.238 40.5076H113.551C113.704 41.1942 114.303 41.5897 115.209 41.5897C116.33 41.5897 116.961 41.0486 116.961 39.8705V39.1839C116.555 39.7963 115.923 40.1945 114.97 40.1945C113.312 40.1945 112.084 39.0274 112.084 37.0665C112.084 35.1057 113.312 33.9385 114.97 33.9385C115.923 33.9385 116.58 34.3587 116.975 34.9738L117.118 34.0126ZM116.964 37.0912C116.964 35.8774 116.261 35.0342 115.187 35.0342C114.113 35.0342 113.41 35.8774 113.41 37.0665C113.41 38.2557 114.113 39.0988 115.187 39.0988C116.261 39.0988 116.964 38.2694 116.964 37.0912Z" fill="black"/>
<path d="M125.179 36.7423V40.1696H123.88V36.8494C123.88 35.6822 123.391 35.056 122.424 35.056C121.397 35.056 120.79 35.814 120.79 37.0636V40.1669H119.502V34.0097H120.622L120.765 34.8144C121.147 34.3338 121.732 33.9355 122.721 33.9355C124.069 33.9355 125.179 34.6798 125.179 36.7368V36.7423Z" fill="black"/>
<path d="M14.3357 3.2246C20.8774 3.2246 26.1997 8.54692 26.1997 15.0886C26.1997 21.6303 20.8774 26.9526 14.3357 26.9526C7.79399 26.9526 2.47167 21.6275 2.47167 15.0859C2.47167 8.54418 7.79399 3.2246 14.3357 3.2246ZM14.3357 0.75293C6.4181 0.75293 0 7.17103 0 15.0859C0 23.0007 6.4181 29.4215 14.3357 29.4215C22.2532 29.4215 28.6713 23.0034 28.6713 15.0859C28.6713 7.16828 22.2532 0.75293 14.3357 0.75293Z" fill="black"/>
<path d="M9.75 8.16504H14.8334C17.879 8.16504 19.6202 9.54917 19.6202 11.8231C19.6202 13.4654 18.6919 14.4541 17.2474 14.8495C18.8897 15.1077 20.153 16.0744 20.153 18.0545C20.153 20.5069 18.3541 22.0091 15.0119 22.0091H9.75275V8.16504H9.75ZM12.0239 10.0627V14.0366H14.8911C16.4537 14.0366 17.3435 13.2841 17.3435 12.0401C17.3435 10.796 16.4729 10.0627 14.8911 10.0627H12.0239ZM12.0239 15.9178V20.0895H15.0284C16.8464 20.0895 17.8159 19.3178 17.8159 18.0325C17.8159 16.6676 16.7888 15.9151 15.0284 15.9151H12.0239V15.9178Z" fill="black"/>
<path d="M76.613 3.2246C83.1547 3.2246 88.477 8.54692 88.477 15.0886C88.477 21.6303 83.1547 26.9526 76.613 26.9526C70.0713 26.9526 64.749 21.6303 64.749 15.0886C64.749 8.54692 70.0713 3.2246 76.613 3.2246ZM76.613 0.75293C68.6954 0.75293 62.2773 7.17103 62.2773 15.0886C62.2773 23.0062 68.6954 29.4243 76.613 29.4243C84.5306 29.4243 90.9487 23.0062 90.9487 15.0886C90.9487 7.17103 84.5306 0.75293 76.613 0.75293Z" fill="black"/>
<path d="M71.8945 22.0091V8.16504H76.6017C80.9326 8.16504 83.6624 10.9525 83.6624 15.0665C83.6624 19.1804 80.9326 22.0064 76.6017 22.0064H71.8945V22.0091ZM74.1685 20.0318H76.6017C79.6473 20.0318 81.3281 18.0352 81.3281 15.0692C81.3281 12.1032 79.6473 10.1451 76.6017 10.1451H74.1685V20.0318Z" fill="black"/>
<path d="M107.752 3.2246C114.293 3.2246 119.616 8.54692 119.616 15.0886C119.616 21.6303 114.293 26.9526 107.752 26.9526C101.21 26.9526 95.8877 21.6303 95.8877 15.0886C95.8877 8.54692 101.21 3.2246 107.752 3.2246ZM107.752 0.75293C99.8341 0.75293 93.416 7.17103 93.416 15.0886C93.416 23.0062 99.8341 29.4243 107.752 29.4243C115.669 29.4243 122.087 23.0062 122.087 15.0886C122.087 7.17103 115.669 0.75293 107.752 0.75293Z" fill="black"/>
<path d="M103.033 22.0091V8.16504H107.74C112.071 8.16504 114.801 10.9525 114.801 15.0665C114.801 19.1804 112.071 22.0064 107.74 22.0064H103.033V22.0091ZM105.307 20.0318H107.74C110.786 20.0318 112.467 18.0352 112.467 15.0692C112.467 12.1032 110.786 10.1451 107.74 10.1451H105.307V20.0318Z" fill="black"/>
<path d="M128.758 2.77101L126.418 3.6361L128.03 5.46513L126.89 6.44831L125.319 4.38584L123.768 6.42908L122.647 5.44591L124.259 3.61687L121.941 2.75179L122.532 1.3759L124.674 2.39752L124.616 0H126.072L126.014 2.41674L128.176 1.3759L128.766 2.77101H128.758Z" fill="black"/>
<path d="M45.4724 3.2246C52.0141 3.2246 57.3364 8.54692 57.3364 15.0886C57.3364 21.6303 52.0141 26.9526 45.4724 26.9526C38.9307 26.9526 33.6084 21.6303 33.6084 15.0886C33.6084 8.54692 38.9307 3.2246 45.4724 3.2246ZM45.4724 0.75293C37.5548 0.75293 31.1367 7.17103 31.1367 15.0886C31.1367 23.0062 37.5548 29.4243 45.4724 29.4243C53.39 29.4243 59.8081 23.0062 59.8081 15.0886C59.8081 7.17103 53.39 0.75293 45.4724 0.75293Z" fill="black"/>
<path d="M38.9442 21.356L44.1264 7.51465H46.8343L51.9946 21.356H49.5613L48.2568 17.9341H42.5803L41.295 21.356H38.9414H38.9442ZM43.2174 15.998H47.6279L45.4144 9.96709L43.2201 15.998H43.2174Z" fill="black"/>
<path d="M14.2807 3.28665C20.7974 3.28665 26.0993 8.58909 26.0993 15.1063C26.0993 21.6236 20.7974 26.926 14.2807 26.926C7.76413 26.926 2.4622 21.6208 2.4622 15.1036C2.4622 8.58636 7.76413 3.28665 14.2807 3.28665ZM14.2807 0.824219C6.39351 0.824219 0 7.21834 0 15.1036C0 22.9889 6.39351 29.3857 14.2807 29.3857C22.168 29.3857 28.5615 22.9916 28.5615 15.1036C28.5615 7.2156 22.168 0.824219 14.2807 0.824219Z" fill="black"/>
</g>
<defs>
<clipPath id="clip0_1564_43">
<rect width="128.757" height="42.65" fill="white"/>
</clipPath>
</defs>
</svg>
